<?xml version="1.0" encoding="utf-8"?>
<!-- Generator: Adobe Illustrator 16.0.0, SVG Export Plug-In . SVG Version: 6.00 Build 0)  -->
<!DOCTYPE svg PUBLIC "-//W3C//DTD SVG 1.1//EN" "http://www.w3.org/Graphics/SVG/1.1/DTD/svg11.dtd">
<svg version="1.1" id="Layer_1" xmlns="http://www.w3.org/2000/svg" xmlns:xlink="http://www.w3.org/1999/xlink" x="0px" y="0px"
	 width="800px" height="800px" viewBox="0 0 800 800" enable-background="new 0 0 800 800" xml:space="preserve">
<g>
	<defs>
		<polygon id="SVGID_1_" points="0,781.373 0,800 800,800 800,661.053 		"/>
	</defs>
	<clipPath id="SVGID_2_">
		<use xlink:href="#SVGID_1_"  overflow="visible"/>
	</clipPath>
</g>
<g>
	<defs>
		<rect id="SVGID_3_" x="2.982" width="797.018" height="513.508"/>
	</defs>
	<clipPath id="SVGID_4_">
		<use xlink:href="#SVGID_3_"  overflow="visible"/>
	</clipPath>
</g>
<g>
	<defs>
		<rect id="SVGID_5_" width="800" height="800"/>
	</defs>
	<clipPath id="SVGID_6_">
		<use xlink:href="#SVGID_5_"  overflow="visible"/>
	</clipPath>
	<path clip-path="url(#SVGID_6_)" fill="#FFFFFF" d="M76.641,262.727h221.995c0,0-16.444-11.452-40.523-0.881
		c0,0-27.602-18.793-35.531-1.468c0,0-4.404-12.333-9.103-12.04c-4.698,0.294-14.682,9.691-14.682,9.691s-16.738-19.968-37.293-18.5
		c-20.555,1.468-36.999,20.555-36.999,20.555s-7.341-4.992-14.095-4.992c-6.754,0-8.809,5.873-8.809,5.873
		S81.045,253.917,76.641,262.727"/>
	<path clip-path="url(#SVGID_6_)" fill="#FFFFFF" d="M-30.853,395h197.296c0,0-14.614-10.178-36.014-0.783
		c0,0-24.532-16.702-31.578-1.305c0,0-3.915-10.961-8.09-10.7c-4.176,0.261-13.049,8.612-13.049,8.612s-14.875-17.746-33.144-16.441
		c-18.268,1.305-32.882,18.268-32.882,18.268s-6.525-4.436-12.527-4.436c-6.002,0-7.829,5.219-7.829,5.219
		S-26.938,387.171-30.853,395"/>
	<path clip-path="url(#SVGID_6_)" fill="#FFFFFF" d="M767.407,376.368H560.642c0,0,15.315-10.666,37.742-0.82
		c0,0,25.709-17.504,33.095-1.368c0,0,4.102-11.487,8.478-11.213c4.376,0.273,13.675,9.025,13.675,9.025s15.59-18.598,34.735-17.23
		c19.145,1.367,34.461,19.145,34.461,19.145s6.837-4.65,13.128-4.65c6.29,0,8.205,5.47,8.205,5.47S763.305,368.164,767.407,376.368"
		/>
	<path clip-path="url(#SVGID_6_)" fill="#829136" d="M88.25,228.847c0,0,14.685-41.093,53.402-46.047
		c38.716-4.955,68.571,25.901,68.571,25.901l-23.17-2.312l-25.635-16.018l15.39,15.911l-25.357-2.587l-16.074-10.442l6.455,11.068
		C141.833,204.321,124.292,204.02,88.25,228.847"/>
	<path clip-path="url(#SVGID_6_)" fill="#5D7042" d="M88.262,226.227c0,0,27.669-17.845,53.735-0.602
		c26.065,17.244,26.265,46.718,26.265,46.718l-11.829-13.234l-2.206-13.834l-0.802,11.428l-11.829-11.428l-1.604-16.241
		l-2.005,13.634l-15.84-9.624l-6.817-11.028l1.604,7.82C116.934,229.835,106.508,225.023,88.262,226.227"/>
	<path clip-path="url(#SVGID_6_)" fill="#829136" d="M90.366,225.46c0,0-19.516-39.031-58.547-39.299
		c-39.031-0.267-64.963,33.952-64.963,33.952l22.724-5.079l23.526-18.981l-13.367,17.644l24.862-5.614l14.704-12.297l-5.08,11.762
		C34.225,207.548,51.602,205.142,90.366,225.46"/>
	<path clip-path="url(#SVGID_6_)" fill="#5D7042" d="M90.598,225.227c0,0-27.669-17.845-53.735-0.602
		c-26.065,17.244-26.266,46.718-26.266,46.718l11.83-13.234l2.206-13.834l0.802,11.428l11.829-11.428l1.604-16.241l2.005,13.634
		l15.84-9.624l6.817-11.028l-1.604,7.82C61.926,228.835,72.352,224.023,90.598,225.227"/>
	<path clip-path="url(#SVGID_6_)" fill="#829136" d="M90.375,226.309c0,0-34.659-34.573-42.766-59.046
		c-8.107-24.472,7.33-47.463,7.33-47.463l6.403,25.895l-7.293,11.14l8.766-7.225l9.942,27.242l-8.276,7.659l9.138-4.449
		L90.375,226.309z"/>
	<path clip-path="url(#SVGID_6_)" fill="#829136" d="M88.414,228.62c0,0-4.204-48.607,11.35-73.95
		c15.554-25.342,40.356-17.033,40.356-17.033l-15.134,21.603l-17.655-0.83l15.133,4.569l-10.93,17.034l-13.031,1.662l11.77,2.077
		L88.414,228.62z"/>
	<path clip-path="url(#SVGID_6_)" fill="#915030" d="M87.213,223.35c0,0-1.604,210.929,56.141,347.27h20.852
		c0,0-75.074-155.055-72.959-345.666L87.213,223.35z"/>
	<path clip-path="url(#SVGID_6_)" fill="#915030" d="M102.085,228.666c0,4.096-3.992,7.417-8.917,7.417
		c-4.924,0-8.916-3.321-8.916-7.417c0-4.096,3.992-7.417,8.916-7.417C98.093,221.249,102.085,224.57,102.085,228.666"/>
	<path clip-path="url(#SVGID_6_)" fill="#829136" d="M733.797,228.847c0,0-14.686-41.093-53.402-46.047
		c-38.716-4.955-68.57,25.901-68.57,25.901l23.17-2.312l25.635-16.018l-15.39,15.911l25.356-2.587l16.074-10.442l-6.455,11.068
		C680.215,204.321,697.755,204.02,733.797,228.847"/>
	<path clip-path="url(#SVGID_6_)" fill="#5D7042" d="M733.785,226.227c0,0-27.669-17.845-53.734-0.602
		c-26.065,17.244-26.266,46.718-26.266,46.718l11.829-13.234l2.206-13.834l0.802,11.428l11.829-11.428l1.604-16.241l2.005,13.634
		l15.84-9.624l6.817-11.028l-1.604,7.82C705.113,229.835,715.539,225.023,733.785,226.227"/>
	<path clip-path="url(#SVGID_6_)" fill="#829136" d="M731.682,225.46c0,0,19.516-39.031,58.547-39.299
		c39.031-0.267,64.963,33.952,64.963,33.952l-22.724-5.079l-23.526-18.981l13.367,17.644l-24.862-5.614l-14.704-12.297l5.08,11.762
		C787.822,207.548,770.445,205.142,731.682,225.46"/>
	<path clip-path="url(#SVGID_6_)" fill="#5D7042" d="M731.449,225.227c0,0,27.67-17.845,53.735-0.602
		c26.065,17.244,26.265,46.718,26.265,46.718l-11.828-13.234l-2.206-13.834l-0.803,11.428l-11.829-11.428l-1.604-16.241
		l-2.005,13.634l-15.84-9.624l-6.817-11.028l1.604,7.82C760.122,228.835,749.695,224.023,731.449,225.227"/>
	<path clip-path="url(#SVGID_6_)" fill="#829136" d="M731.673,226.309c0,0,34.659-34.573,42.766-59.046
		c8.107-24.472-7.33-47.463-7.33-47.463l-6.402,25.895l7.293,11.14l-8.767-7.225l-9.941,27.242l8.275,7.659l-9.138-4.449
		L731.673,226.309z"/>
	<path clip-path="url(#SVGID_6_)" fill="#829136" d="M733.634,228.62c0,0,4.204-48.607-11.35-73.95
		c-15.555-25.342-40.356-17.033-40.356-17.033l15.134,21.603l17.655-0.83l-15.133,4.569l10.93,17.034l13.031,1.662l-11.77,2.077
		L733.634,228.62z"/>
	<path clip-path="url(#SVGID_6_)" fill="#915030" d="M734.834,223.35c0,0,1.604,210.929-56.141,347.27h-20.852
		c0,0,75.073-155.055,72.959-345.666L734.834,223.35z"/>
	<path clip-path="url(#SVGID_6_)" fill="#915030" d="M719.962,228.666c0,4.096,3.992,7.417,8.917,7.417
		c4.924,0,8.916-3.321,8.916-7.417c0-4.096-3.992-7.417-8.916-7.417C723.954,221.249,719.962,224.57,719.962,228.666"/>
	<rect x="518.75" y="516" clip-path="url(#SVGID_6_)" fill="#D7C8CB" width="3.917" height="30.333"/>
	<polygon clip-path="url(#SVGID_6_)" fill="#82610F" points="791.035,802.829 736.669,799.049 738.671,802.389 796.143,806.837 	"/>
	<polygon clip-path="url(#SVGID_6_)" fill="#4B5B34" points="798.337,742.439 836.719,689.36 838.385,692.409 801.354,750.206 	"/>
	<polygon clip-path="url(#SVGID_6_)" fill="#82610F" points="22.666,802.829 77.032,799.049 75.03,802.389 17.558,806.837 	"/>
	<polygon clip-path="url(#SVGID_6_)" fill="#4B5B34" points="3.375,772.688 -35.792,720.212 -37.144,724.441 1.235,777.712 	"/>
</g>
<g>
	<path fill="#E2E2E2" d="M245.807,120.378h6.03v44.338h-5.459l-29.644-34.147v34.147h-5.967v-44.338h5.142l29.897,34.438V120.378z"
		/>
	<path fill="#E2E2E2" d="M261.327,120.378h25.137v5.649h-18.789v13.521h18.154v5.681h-18.154v13.774h19.392v5.649h-25.74V120.378z"
		/>
	<path fill="#E2E2E2" d="M293.827,120.378h25.137v5.649h-18.789v13.521h18.154v5.681h-18.154v13.774h19.392v5.649h-25.74V120.378z"
		/>
	<path fill="#E2E2E2" d="M326.39,164.653v-44.275h14.95c6.029,0,10.801,0.905,14.313,2.713c3.512,1.81,6.305,4.47,8.379,7.982
		c2.074,3.513,3.111,7.342,3.111,11.489c0,2.962-0.572,5.798-1.715,8.506c-1.143,2.708-2.771,5.089-4.887,7.141
		c-2.158,2.116-4.666,3.713-7.521,4.792c-1.672,0.656-3.207,1.095-4.604,1.317c-1.396,0.222-4.063,0.333-7.998,0.333H326.39z
		 M340.672,126.027h-7.934v32.976h8.125c3.174,0,5.639-0.217,7.395-0.65s3.221-0.984,4.396-1.65c1.174-0.667,2.248-1.486,3.221-2.46
		c3.131-3.174,4.697-7.183,4.697-12.029c0-4.761-1.607-8.643-4.824-11.648c-1.186-1.121-2.545-2.042-4.078-2.761
		c-1.535-0.719-2.988-1.195-4.363-1.428C345.93,126.144,343.719,126.027,340.672,126.027z"/>
	<path fill="#E2E2E2" d="M407.293,120.124h4.461l19.881,44.592h-6.497l-5.909-13.14h-18.917l-5.54,13.14h-6.523L407.293,120.124z
		 M416.618,145.927l-7.153-16.06l-6.634,16.06H416.618z"/>
	<path fill="#E2E2E2" d="M454.74,164.716v-44.338h11.108c4.485,0,8.046,1.111,10.68,3.333c2.635,2.222,3.952,5.227,3.952,9.014
		c0,2.582-0.646,4.814-1.937,6.697c-1.291,1.883-3.142,3.291-5.554,4.221c1.417,0.931,2.803,2.201,4.157,3.809
		c1.354,1.608,3.258,4.412,5.713,8.411c1.544,2.518,2.782,4.412,3.714,5.681l2.348,3.174h-7.553l-1.934-2.921
		c-0.063-0.105-0.19-0.286-0.381-0.54l-1.236-1.747l-1.965-3.239l-2.124-3.461c-1.31-1.821-2.511-3.27-3.602-4.347
		s-2.076-1.854-2.955-2.329c-0.879-0.475-2.356-0.713-4.433-0.713h-1.652v19.297H454.74z M462.992,125.773h-1.904v13.997h2.412
		c3.216,0,5.422-0.275,6.617-0.825c1.195-0.55,2.127-1.381,2.793-2.491c0.667-1.111,1-2.375,1-3.793c0-1.396-0.37-2.661-1.111-3.793
		c-0.74-1.131-1.782-1.93-3.126-2.396C468.329,126.006,466.103,125.773,462.992,125.773z"/>
	<path fill="#E2E2E2" d="M493.873,120.378h6.348v44.338h-6.348V120.378z"/>
	<path fill="#E2E2E2" d="M510.123,164.653v-44.275h14.949c6.029,0,10.801,0.905,14.313,2.713c3.512,1.81,6.305,4.47,8.379,7.982
		c2.073,3.513,3.11,7.342,3.11,11.489c0,2.962-0.571,5.798-1.714,8.506c-1.143,2.708-2.772,5.089-4.888,7.141
		c-2.158,2.116-4.666,3.713-7.521,4.792c-1.672,0.656-3.206,1.095-4.603,1.317c-1.396,0.222-4.063,0.333-7.998,0.333H510.123z
		 M524.405,126.027h-7.935v32.976h8.125c3.174,0,5.639-0.217,7.395-0.65c1.757-0.434,3.222-0.984,4.396-1.65
		c1.174-0.667,2.248-1.486,3.221-2.46c3.132-3.174,4.697-7.183,4.697-12.029c0-4.761-1.607-8.643-4.824-11.648
		c-1.185-1.121-2.544-2.042-4.078-2.761c-1.534-0.719-2.988-1.195-4.363-1.428C529.663,126.144,527.452,126.027,524.405,126.027z"/>
	<path fill="#E2E2E2" d="M558.81,120.378h25.137v5.649h-18.789v13.521h18.154v5.681h-18.154v13.774h19.392v5.649H558.81V120.378z"/>
	<path fill="#E2E2E2" d="M590.643,126.694l4.167-6.951c3.436,0.127,6.043,1.083,7.824,2.87c1.781,1.787,2.673,3.99,2.673,6.611
		c0,1.691-0.346,3.482-1.035,5.375c-0.69,1.892-2.234,4.667-4.633,8.323c-2.781,4.271-4.172,7.304-4.172,9.1
		c0,0.275,0.064,0.708,0.191,1.3c-1.439-0.655-2.471-1.442-3.095-2.361c-0.625-0.919-0.937-2.15-0.937-3.694
		c0-1.479,0.249-2.8,0.749-3.963c0.499-1.162,1.705-3.233,3.618-6.213c1.828-2.875,2.742-5.263,2.742-7.165
		c0-1.31-0.409-2.351-1.227-3.123c-0.818-0.771-1.906-1.157-3.267-1.157C593.224,125.646,592.023,125.996,590.643,126.694z
		 M600.355,161.4c0,1.084-0.384,1.992-1.148,2.725s-1.71,1.1-2.836,1.1c-1.062,0-1.955-0.361-2.677-1.083
		c-0.723-0.722-1.083-1.615-1.083-2.677c0-1.105,0.371-2.045,1.115-2.82c0.743-0.776,1.646-1.164,2.709-1.164
		c1.104,0,2.033,0.377,2.788,1.132C599.978,159.366,600.355,160.295,600.355,161.4z"/>
</g>
<g>
	<defs>
		<rect id="SVGID_7_" width="800" height="800"/>
	</defs>
	<clipPath id="SVGID_8_">
		<use xlink:href="#SVGID_7_"  overflow="visible"/>
	</clipPath>
	<g clip-path="url(#SVGID_8_)">
		<g>
			<defs>
				<rect id="SVGID_9_" x="281.48" y="661.333" width="8.706" height="9"/>
			</defs>
			<clipPath id="SVGID_10_">
				<use xlink:href="#SVGID_9_"  overflow="visible"/>
			</clipPath>
			<path clip-path="url(#SVGID_10_)" fill="#EEB26F" d="M285.833,661.333c-5.804,0-5.804,9,0,9
				C291.637,670.333,291.637,661.333,285.833,661.333"/>
		</g>
	</g>
	<g clip-path="url(#SVGID_8_)">
		<g>
			<defs>
				<rect id="SVGID_11_" x="343.206" y="660.631" width="2.938" height="2.553"/>
			</defs>
			<clipPath id="SVGID_12_">
				<use xlink:href="#SVGID_11_"  overflow="visible"/>
			</clipPath>
			<path clip-path="url(#SVGID_12_)" fill="#EEB26F" d="M345.218,660.688c-0.498-0.146-0.901,0.005-1.251,0.291
				c-0.006,0.002-0.013,0.004-0.019,0.006c-0.299,0.047-0.56,0.21-0.682,0.498c-0.14,0.33-0.009,0.542,0.117,0.836
				c0.133,0.177,0.28,0.341,0.442,0.491c0.798,0.754,2.254,0.317,2.317-0.848C346.174,661.375,345.775,660.852,345.218,660.688"/>
		</g>
	</g>
	<g clip-path="url(#SVGID_8_)">
		<g>
			<defs>
				<rect id="SVGID_13_" x="368.35" y="658.281" width="3.282" height="1.455"/>
			</defs>
			<clipPath id="SVGID_14_">
				<use xlink:href="#SVGID_13_"  overflow="visible"/>
			</clipPath>
			<path clip-path="url(#SVGID_14_)" fill="#EEB26F" d="M371.32,658.413c-0.473,0.048-0.918,0.009-1.396-0.019
				c-0.367-0.021-0.777-0.016-1.134-0.101c-0.372-0.088-0.562,0.295-0.354,0.582c0.472,0.648,1.054,0.879,1.837,0.858
				c0.478-0.012,1.064-0.463,1.31-0.851C371.71,658.684,371.58,658.387,371.32,658.413"/>
		</g>
	</g>
	<g clip-path="url(#SVGID_8_)">
		<g>
			<defs>
				<rect id="SVGID_15_" x="391.529" y="653.497" width="3.539" height="3.282"/>
			</defs>
			<clipPath id="SVGID_16_">
				<use xlink:href="#SVGID_15_"  overflow="visible"/>
			</clipPath>
			<path clip-path="url(#SVGID_16_)" fill="#EEB26F" d="M393.07,653.581c-0.203,0.065-0.372,0.142-0.531,0.226
				c-0.037-0.04-0.081-0.072-0.117-0.113c-0.235-0.361-0.841-0.188-0.868,0.231c-0.034,0.531-0.037,0.956,0.014,1.475
				c0.105,1.087,1.182,1.608,2.155,1.284c0.386-0.129,0.595-0.342,0.89-0.615C395.777,654.989,394.501,653.125,393.07,653.581"/>
		</g>
	</g>
	<g clip-path="url(#SVGID_8_)">
		<g>
			<defs>
				<rect id="SVGID_17_" x="404.695" y="639.822" width="1.12" height="1.021"/>
			</defs>
			<clipPath id="SVGID_18_">
				<use xlink:href="#SVGID_17_"  overflow="visible"/>
			</clipPath>
			<path clip-path="url(#SVGID_18_)" fill="#EEB26F" d="M405.245,639.831c-0.048,0.008-0.096,0.016-0.145,0.023
				c-0.158,0.027-0.325,0.119-0.377,0.285c-0.128,0.42,0.188,0.637,0.569,0.697C406.023,640.952,405.969,639.71,405.245,639.831"/>
		</g>
	</g>
	<g clip-path="url(#SVGID_8_)">
		<g>
			<defs>
				<rect id="SVGID_19_" x="369.763" y="642.526" width="2.025" height="0.947"/>
			</defs>
			<clipPath id="SVGID_20_">
				<use xlink:href="#SVGID_19_"  overflow="visible"/>
			</clipPath>
			<path clip-path="url(#SVGID_20_)" fill="#EEB26F" d="M371.273,642.528c-0.553-0.007-0.923-0.008-1.408,0.266
				c-0.161,0.093-0.117,0.348,0.031,0.424c0.519,0.269,0.915,0.262,1.497,0.254C372.01,643.463,371.854,642.535,371.273,642.528"/>
		</g>
	</g>
	<g clip-path="url(#SVGID_8_)">
		<g>
			<defs>
				<rect id="SVGID_21_" x="346.794" y="647.144" width="0.4" height="1.382"/>
			</defs>
			<clipPath id="SVGID_22_">
				<use xlink:href="#SVGID_21_"  overflow="visible"/>
			</clipPath>
			<path clip-path="url(#SVGID_22_)" fill="#EEB26F" d="M347.104,647.266c-0.033-0.104-0.141-0.182-0.205-0.057
				c-0.179,0.352-0.091,0.822-0.002,1.192c0.022,0.092,0.16,0.194,0.205,0.057C347.226,648.076,347.224,647.646,347.104,647.266"/>
		</g>
	</g>
	<g clip-path="url(#SVGID_8_)">
		<g>
			<defs>
				<rect id="SVGID_23_" x="316.777" y="643.788" width="3.232" height="1.597"/>
			</defs>
			<clipPath id="SVGID_24_">
				<use xlink:href="#SVGID_23_"  overflow="visible"/>
			</clipPath>
			<path clip-path="url(#SVGID_24_)" fill="#EEB26F" d="M319.135,643.868c-0.001-0.005-0.002-0.011-0.004-0.016
				c-0.012-0.001-0.049-0.001-0.095,0c-0.698-0.134-1.455-0.051-2.126,0.169c-0.25,0.082-0.114,0.686,0.133,0.68
				c0.579-0.013,1.108,0.071,1.628,0.235c0.145,0.228,0.352,0.375,0.63,0.425c0.097,0.024,0.196,0.03,0.294,0.017
				C320.529,645.34,319.663,643.996,319.135,643.868"/>
		</g>
	</g>
	<g clip-path="url(#SVGID_8_)">
		<g>
			<defs>
				<rect id="SVGID_25_" x="312.394" y="687.792" width="2.752" height="2.404"/>
			</defs>
			<clipPath id="SVGID_26_">
				<use xlink:href="#SVGID_25_"  overflow="visible"/>
			</clipPath>
			<path clip-path="url(#SVGID_26_)" fill="#EEB26F" d="M315.081,689.197c-0.263-0.746-1.148-1.474-1.97-1.399
				c-0.044,0.004-0.088,0.007-0.132,0.011c-0.524,0.047-0.681,0.526-0.531,0.976c0.208,0.629,0.921,1.331,1.609,1.391
				c0.066,0.006,0.131,0.011,0.196,0.017C314.895,690.247,315.313,689.855,315.081,689.197"/>
		</g>
	</g>
	<g clip-path="url(#SVGID_8_)">
		<g>
			<defs>
				<rect id="SVGID_27_" x="336.898" y="687.704" width="1.029" height="1.259"/>
			</defs>
			<clipPath id="SVGID_28_">
				<use xlink:href="#SVGID_27_"  overflow="visible"/>
			</clipPath>
			<path clip-path="url(#SVGID_28_)" fill="#EEB26F" d="M337.774,688.039c0.003,0.003,0.006,0.005,0.01,0.009
				c-0.006-0.011-0.015-0.017-0.021-0.025c-0.041-0.066-0.088-0.123-0.141-0.171c-0.011-0.01-0.017-0.024-0.028-0.033
				c-0.006-0.005-0.012-0.005-0.018-0.009c-0.044-0.033-0.091-0.052-0.139-0.066c-0.013-0.003-0.026-0.011-0.039-0.014
				c-0.006-0.001-0.012-0.006-0.018-0.006c0.002,0.001,0.004,0.003,0.006,0.005c-0.058-0.011-0.117-0.016-0.184-0.023
				c-0.563-0.056-0.267,1.315,0.262,1.256c0.052-0.006,0.104-0.012,0.156-0.018C338.018,688.898,337.982,688.387,337.774,688.039"/>
		</g>
	</g>
	<g clip-path="url(#SVGID_8_)">
		<g>
			<defs>
				<rect id="SVGID_29_" x="379.488" y="688.027" width="4.391" height="2.903"/>
			</defs>
			<clipPath id="SVGID_30_">
				<use xlink:href="#SVGID_29_"  overflow="visible"/>
			</clipPath>
			<path clip-path="url(#SVGID_30_)" fill="#EEB26F" d="M382.057,688.209c-0.771-0.21-1.73-0.376-2.345,0.322
				c-0.692,0.787,0.383,1.703,1.029,2.016c0.795,0.386,2.219,0.667,2.9-0.106C384.501,689.464,382.814,688.416,382.057,688.209"/>
		</g>
	</g>
	<g clip-path="url(#SVGID_8_)">
		<g>
			<defs>
				<rect id="SVGID_31_" x="416.076" y="689.67" width="1.822" height="2.287"/>
			</defs>
			<clipPath id="SVGID_32_">
				<use xlink:href="#SVGID_31_"  overflow="visible"/>
			</clipPath>
			<path clip-path="url(#SVGID_32_)" fill="#EEB26F" d="M417.815,690.781c-0.13-0.497-0.67-1.05-1.194-1.106
				c-0.466-0.051-0.578,0.317-0.533,0.687l-0.001,0.004c-0.136,0.663,1.06,2.188,1.642,1.342c-0.135,0.197,0.087-0.104,0.111-0.161
				C417.948,691.281,417.885,691.047,417.815,690.781"/>
		</g>
	</g>
	<g clip-path="url(#SVGID_8_)">
		<g>
			<defs>
				<rect id="SVGID_33_" x="211.621" y="649.817" width="1.945" height="2.925"/>
			</defs>
			<clipPath id="SVGID_34_">
				<use xlink:href="#SVGID_33_"  overflow="visible"/>
			</clipPath>
			<path clip-path="url(#SVGID_34_)" fill="#EEB26F" d="M213.557,651.652c-0.035-0.352-0.146-0.59-0.308-0.826
				c-0.056-0.203-0.137-0.4-0.269-0.584c-0.221-0.307-0.618-0.59-0.976-0.313c-0.383,0.296-0.431,0.844-0.348,1.29
				c0.131,0.713,0.53,1.298,1.231,1.518c0.147,0.019,0.276-0.021,0.388-0.121C213.525,652.343,213.594,652.021,213.557,651.652"/>
		</g>
	</g>
	<g clip-path="url(#SVGID_8_)">
		<g>
			<defs>
				<rect id="SVGID_35_" x="131.72" y="643.083" width="3.437" height="3.777"/>
			</defs>
			<clipPath id="SVGID_36_">
				<use xlink:href="#SVGID_35_"  overflow="visible"/>
			</clipPath>
			<path clip-path="url(#SVGID_36_)" fill="#EEB26F" d="M135.047,644.982c-0.324-1.106-1.531-2.405-2.772-1.699
				c-1.179,0.671-0.279,3.107,0.834,3.417c0.578,0.16,0.958,0.225,1.543,0.076C135.321,646.606,135.176,645.421,135.047,644.982"/>
		</g>
	</g>
	<g clip-path="url(#SVGID_8_)">
		<g>
			<defs>
				<rect id="SVGID_37_" x="113.589" y="606.99" width="1.385" height="2.344"/>
			</defs>
			<clipPath id="SVGID_38_">
				<use xlink:href="#SVGID_37_"  overflow="visible"/>
			</clipPath>
			<path clip-path="url(#SVGID_38_)" fill="#EEB26F" d="M114.889,607.232c-0.125-0.271-0.451-0.346-0.625-0.065
				c-0.161,0.26-0.322,0.521-0.484,0.779c-0.204,0.33-0.263,0.785-0.085,1.141c0.213,0.427,0.601,0.241,0.767-0.106
				c0.134-0.281,0.268-0.562,0.403-0.843C114.994,607.868,115.017,607.507,114.889,607.232"/>
		</g>
	</g>
	<g clip-path="url(#SVGID_8_)">
		<g>
			<defs>
				<rect id="SVGID_39_" x="99.276" y="584.457" width="3.582" height="4.39"/>
			</defs>
			<clipPath id="SVGID_40_">
				<use xlink:href="#SVGID_39_"  overflow="visible"/>
			</clipPath>
			<path clip-path="url(#SVGID_40_)" fill="#EEB26F" d="M101.777,585.239c-0.36-0.362-0.827-0.688-1.344-0.771
				c-0.514-0.081-1.136,0.234-1.152,0.825c-0.018,0.651,0.004,1.106,0.293,1.736c0.362,0.783,1.08,1.631,1.976,1.796
				c0.54,0.099,0.888-0.167,1.056-0.566c0.02-0.031,0.039-0.063,0.059-0.094C103.241,587.256,102.405,585.87,101.777,585.239"/>
		</g>
	</g>
	<g clip-path="url(#SVGID_8_)">
		<g>
			<defs>
				<rect id="SVGID_41_" x="28.496" y="565.798" width="1.739" height="2.383"/>
			</defs>
			<clipPath id="SVGID_42_">
				<use xlink:href="#SVGID_41_"  overflow="visible"/>
			</clipPath>
			<path clip-path="url(#SVGID_42_)" fill="#EEB26F" d="M29.382,565.811c-0.097,0.023-0.194,0.045-0.291,0.068
				c-0.4,0.093-0.553,0.487-0.589,0.866c-0.036,0.372,0.067,1.25,0.56,1.349c0.121,0.023,0.242,0.048,0.363,0.071
				C30.66,568.408,30.348,565.586,29.382,565.811"/>
		</g>
	</g>
	<g clip-path="url(#SVGID_8_)">
		<g>
			<defs>
				<rect id="SVGID_43_" x="57.213" y="553.028" width="3.243" height="2.955"/>
			</defs>
			<clipPath id="SVGID_44_">
				<use xlink:href="#SVGID_43_"  overflow="visible"/>
			</clipPath>
			<path clip-path="url(#SVGID_44_)" fill="#EEB26F" d="M60.289,553.89c-0.38-0.376-0.654-0.712-1.184-0.837
				c-0.185-0.043-0.428-0.016-0.618-0.021c-0.249-0.011-0.374,0.051-0.503,0.173c-0.049,0.014-0.099,0.027-0.148,0.041
				c-0.914,0.254-0.779,2.294,0.124,2.49c0.255,0.057,0.503,0.186,0.754,0.234c0.184,0.036,0.441-0.011,0.63-0.018
				c0.189-0.006,0.392-0.034,0.552-0.152c0.293-0.215,0.2-0.497,0.358-0.748C60.441,554.757,60.58,554.178,60.289,553.89"/>
		</g>
	</g>
	<g clip-path="url(#SVGID_8_)">
		<g>
			<defs>
				<rect id="SVGID_45_" x="89.661" y="553.587" width="3.069" height="3.827"/>
			</defs>
			<clipPath id="SVGID_46_">
				<use xlink:href="#SVGID_45_"  overflow="visible"/>
			</clipPath>
			<path clip-path="url(#SVGID_46_)" fill="#EEB26F" d="M92.596,555.436c-0.28-0.843-0.962-1.787-1.925-1.836
				c-0.074-0.004-0.148-0.008-0.221-0.011c-0.982-0.05-0.842,1.439-0.656,1.987c0.263,0.77,1.006,1.895,1.957,1.836l0.179-0.012
				C92.888,557.341,92.806,556.068,92.596,555.436"/>
		</g>
	</g>
	<g clip-path="url(#SVGID_8_)">
		<g>
			<defs>
				<rect id="SVGID_47_" x="101.26" y="555.718" width="1.592" height="1.513"/>
			</defs>
			<clipPath id="SVGID_48_">
				<use xlink:href="#SVGID_47_"  overflow="visible"/>
			</clipPath>
			<path clip-path="url(#SVGID_48_)" fill="#EEB26F" d="M102.328,555.802c-0.306,0.294-0.617,0.581-0.932,0.865
				c-0.1,0.091-0.259,0.608,0.021,0.561c0.348-0.061,0.697-0.118,1.046-0.174c0.297-0.05,0.395-0.546,0.389-0.776
				C102.847,556.062,102.633,555.51,102.328,555.802"/>
		</g>
	</g>
	<g clip-path="url(#SVGID_8_)">
		<g>
			<defs>
				<rect id="SVGID_49_" x="92.659" y="567.689" width="1.413" height="2.239"/>
			</defs>
			<clipPath id="SVGID_50_">
				<use xlink:href="#SVGID_49_"  overflow="visible"/>
			</clipPath>
			<path clip-path="url(#SVGID_50_)" fill="#EEB26F" d="M93.787,567.933c-0.221-0.241-0.572-0.354-0.826-0.099
				c-0.282,0.284-0.475,1.034-0.069,1.316c0.025,0.188,0.071,0.371,0.156,0.512c0.284,0.472,0.784,0.265,0.921-0.203
				C94.108,568.977,94.154,568.337,93.787,567.933"/>
		</g>
	</g>
	<g clip-path="url(#SVGID_8_)">
		<g>
			<defs>
				<rect id="SVGID_51_" x="82.935" y="569.541" width="1.131" height="2.486"/>
			</defs>
			<clipPath id="SVGID_52_">
				<use xlink:href="#SVGID_51_"  overflow="visible"/>
			</clipPath>
			<path clip-path="url(#SVGID_52_)" fill="#EEB26F" d="M83.661,569.587c-0.59-0.281-0.788,0.807-0.71,1.158
				c0.081,0.361,0.165,0.718,0.256,1.075c0.128,0.5,0.54-0.038,0.601-0.258c0.053-0.194,0.11-0.387,0.175-0.578
				C84.12,570.575,84.132,569.811,83.661,569.587"/>
		</g>
	</g>
	<g clip-path="url(#SVGID_8_)">
		<g>
			<defs>
				<rect id="SVGID_53_" x="140.091" y="608.454" width="0.846" height="1.71"/>
			</defs>
			<clipPath id="SVGID_54_">
				<use xlink:href="#SVGID_53_"  overflow="visible"/>
			</clipPath>
			<path clip-path="url(#SVGID_54_)" fill="#EEB26F" d="M140.692,608.482c-0.549-0.219-0.623,0.891-0.597,1.14
				c0.02,0.194,0.065,0.506,0.312,0.539c0.297,0.041,0.462-0.381,0.487-0.606c0.012-0.113,0.024-0.227,0.036-0.34
				C140.953,609.012,140.934,608.578,140.692,608.482"/>
		</g>
	</g>
	<g clip-path="url(#SVGID_8_)">
		<g>
			<defs>
				<rect id="SVGID_55_" x="86.245" y="651.321" width="3.3" height="4.313"/>
			</defs>
			<clipPath id="SVGID_56_">
				<use xlink:href="#SVGID_55_"  overflow="visible"/>
			</clipPath>
			<path clip-path="url(#SVGID_56_)" fill="#EEB26F" d="M89.347,653.61c-0.403-1.009-1.523-2.29-2.718-2.29
				c-0.706,1.972-0.438,3.356,0.803,4.156c0.167,0.096,0.343,0.12,0.529,0.073c0.181-0.062,0.315-0.179,0.403-0.35
				c0.105-0.205,0.161-0.424,0.167-0.654c0.095,0.363,0.191,0.726,0.287,1.088c0.284-0.085,0.489-0.263,0.613-0.533
				C89.642,654.632,89.528,654.064,89.347,653.61"/>
		</g>
	</g>
	<g clip-path="url(#SVGID_8_)">
		<g>
			<defs>
				<rect id="SVGID_57_" x="243.063" y="720.5" width="5.979" height="4.74"/>
			</defs>
			<clipPath id="SVGID_58_">
				<use xlink:href="#SVGID_57_"  overflow="visible"/>
			</clipPath>
			<path clip-path="url(#SVGID_58_)" fill="#EEB26F" d="M248.75,722.864c-0.74-1.361-2.439-2.364-3.986-2.364
				c-0.569,0-1.218,0.172-1.53,0.698c-0.313,0.528-0.151,1.177,0.121,1.678c0.74,1.36,2.439,2.364,3.986,2.364
				c0.57,0,1.218-0.172,1.53-0.699C249.184,724.015,249.022,723.365,248.75,722.864"/>
		</g>
	</g>
	<g clip-path="url(#SVGID_8_)">
		<g>
			<defs>
				<rect id="SVGID_59_" x="204.17" y="705.098" width="2.613" height="3.692"/>
			</defs>
			<clipPath id="SVGID_60_">
				<use xlink:href="#SVGID_59_"  overflow="visible"/>
			</clipPath>
			<path clip-path="url(#SVGID_60_)" fill="#EEB26F" d="M206.702,707.021c-0.064-0.199-0.127-0.397-0.191-0.597
				c-0.254-0.792-1.506-2.007-2.113-0.851c-0.027,0.053-0.055,0.104-0.082,0.156c-0.465,0.887,0.269,2.305,0.994,2.82
				C206.431,709.349,207.006,707.972,206.702,707.021"/>
		</g>
	</g>
	<g clip-path="url(#SVGID_8_)">
		<g>
			<defs>
				<rect id="SVGID_61_" x="248.119" y="686.129" width="2.762" height="3.742"/>
			</defs>
			<clipPath id="SVGID_62_">
				<use xlink:href="#SVGID_61_"  overflow="visible"/>
			</clipPath>
			<path clip-path="url(#SVGID_62_)" fill="#EEB26F" d="M250.768,687.963c-0.241-0.779-0.916-1.833-1.847-1.833
				c-0.943,0-0.873,1.314-0.69,1.908c0.241,0.777,0.917,1.833,1.847,1.833C251.022,689.871,250.951,688.555,250.768,687.963"/>
		</g>
	</g>
	<g clip-path="url(#SVGID_8_)">
		<g>
			<defs>
				<rect id="SVGID_63_" x="358.766" y="601.606" width="5.036" height="5.506"/>
			</defs>
			<clipPath id="SVGID_64_">
				<use xlink:href="#SVGID_63_"  overflow="visible"/>
			</clipPath>
			<path clip-path="url(#SVGID_64_)" fill="#EEB26F" d="M363.795,604.864c0.054-0.782-0.216-1.477-0.649-2.112
				c-0.55-0.808-1.526-1.276-2.481-1.114c-0.866,0.146-1.389,0.874-1.8,1.577c-0.253,0.433,0.035,1.202,0.228,1.587
				c0.276,0.548,0.678,0.99,1.141,1.376c0.184,0.335,0.396,0.661,0.728,0.838c0.167,0.095,0.344,0.12,0.529,0.074l0.229-0.128
				c0.129-0.316,0.294-0.304,0.495,0.04c0.764-0.058,1.087-0.526,1.121-1.135c0.002-0.002,0.01-0.005,0.012-0.006
				C363.629,605.63,363.771,605.218,363.795,604.864"/>
		</g>
	</g>
	<g clip-path="url(#SVGID_8_)">
		<g>
			<defs>
				<rect id="SVGID_65_" x="290.392" y="605.212" width="1.216" height="2.807"/>
			</defs>
			<clipPath id="SVGID_66_">
				<use xlink:href="#SVGID_65_"  overflow="visible"/>
			</clipPath>
			<path clip-path="url(#SVGID_66_)" fill="#EEB26F" d="M291.589,606.196c-0.008-0.336-0.14-0.986-0.595-0.984
				c-0.457,0.003-0.575,0.654-0.583,0.991c-0.006,0.27-0.012,0.539-0.018,0.809c-0.008,0.347,0.173,1.017,0.627,1.008
				c0.464-0.009,0.596-0.685,0.587-1.032C291.601,606.725,291.595,606.461,291.589,606.196"/>
		</g>
	</g>
	<g clip-path="url(#SVGID_8_)">
		<g>
			<defs>
				<rect id="SVGID_67_" x="437.431" y="655.759" width="6.594" height="6.582"/>
			</defs>
			<clipPath id="SVGID_68_">
				<use xlink:href="#SVGID_67_"  overflow="visible"/>
			</clipPath>
			<path clip-path="url(#SVGID_68_)" fill="#EEB26F" d="M443.976,659.798c-0.176-0.737-0.717-1.291-1.187-1.851
				c-0.551-0.654-1.296-1.313-2.113-1.617c-0.051-0.02-0.103-0.029-0.153-0.043c-0.233-0.395-0.677-0.794-1.013-0.298
				c-0.246,0.19-0.445,0.419-0.596,0.688c-0.044,0.093-0.089,0.186-0.134,0.279c-0.224,0.159-0.398,0.36-0.539,0.591
				c-0.017,0.021-0.033,0.051-0.048,0.081c-0.046,0.078-0.094,0.154-0.139,0.235l-0.006,0.004c-0.932,0.52-0.65,1.665-0.187,2.408
				c0.628,1.004,1.776,1.88,2.974,2.033c0.93,0.118,1.771-0.093,2.484-0.709c0.283-0.245,0.73-0.716,0.702-1.146
				C444.008,660.235,443.992,660.017,443.976,659.798"/>
		</g>
	</g>
	<g clip-path="url(#SVGID_8_)">
		<g>
			<defs>
				<rect id="SVGID_69_" x="487.553" y="679.277" width="1.765" height="2.167"/>
			</defs>
			<clipPath id="SVGID_70_">
				<use xlink:href="#SVGID_69_"  overflow="visible"/>
			</clipPath>
			<path clip-path="url(#SVGID_70_)" fill="#EEB26F" d="M489.136,679.54c-0.191-0.342-0.559-0.354-0.77-0.021
				c-0.015,0.021-0.02,0.048-0.031,0.069c-0.013-0.002-0.026-0.001-0.038-0.003s-0.022,0.003-0.033,0.003
				c-0.044-0.034-0.101-0.054-0.185-0.031c-0.894,0.236-0.535,1.724,0.232,1.869C489.343,681.621,489.508,680.202,489.136,679.54"/>
		</g>
	</g>
	<g clip-path="url(#SVGID_8_)">
		<g>
			<defs>
				<rect id="SVGID_71_" x="450.159" y="684.311" width="2.082" height="3.619"/>
			</defs>
			<clipPath id="SVGID_72_">
				<use xlink:href="#SVGID_71_"  overflow="visible"/>
			</clipPath>
			<path clip-path="url(#SVGID_72_)" fill="#EEB26F" d="M452.209,684.648c-0.121-0.655-0.726-0.199-1.038,0.056
				c-0.177,0.143-0.287,0.451-0.396,0.645c-0.149,0.272-0.301,0.543-0.451,0.814c-0.24,0.434-0.216,1.074,0.054,1.49
				c0.237,0.368,0.683,0.379,0.888-0.031C451.705,686.743,452.398,685.683,452.209,684.648"/>
		</g>
	</g>
	<g clip-path="url(#SVGID_8_)">
		<g>
			<defs>
				<rect id="SVGID_73_" x="512.9" y="657.839" width="10.408" height="7.925"/>
			</defs>
			<clipPath id="SVGID_74_">
				<use xlink:href="#SVGID_73_"  overflow="visible"/>
			</clipPath>
			<path clip-path="url(#SVGID_74_)" fill="#EEB26F" d="M523.295,660.268c0.189-1.396-1.564-2.18-2.652-2.238
				c-1.282-0.171-2.564-0.227-3.849-0.168c-0.272,0.064-0.477,0.221-0.609,0.468c-1.229,0.597-2.105,1.478-2.63,2.644
				c-0.15,0.487-0.264,0.946-0.352,1.41c-0.192,0.404-0.299,0.827-0.215,1.264c0.003,0.015,0.008,0.026,0.011,0.04
				c-0.033,0.281-0.065,0.563-0.1,0.843c0.074-0.161,0.146-0.323,0.22-0.485c0.304,0.67,0.988,1.112,1.661,1.356
				c2.508,0.911,5.767,0.062,7.428-2.02c0.076-0.261,0.151-0.521,0.228-0.782c0.104-0.161,0.21-0.323,0.314-0.485
				C523.099,661.544,523.279,660.929,523.295,660.268"/>
		</g>
	</g>
	<g clip-path="url(#SVGID_8_)">
		<g>
			<defs>
				<rect id="SVGID_75_" x="548.069" y="639.827" width="3.256" height="3.353"/>
			</defs>
			<clipPath id="SVGID_76_">
				<use xlink:href="#SVGID_75_"  overflow="visible"/>
			</clipPath>
			<path clip-path="url(#SVGID_76_)" fill="#EEB26F" d="M551.071,640.082c-0.208-0.127-0.39-0.177-0.625-0.238
				c-0.265-0.07-0.503,0.098-0.733,0.203c-0.404,0.188-0.81,0.374-1.214,0.562c-0.95,0.438-0.17,3.112,0.833,2.474
				c0.309-0.195,0.615-0.391,0.923-0.587c0.154-0.098,0.309-0.196,0.464-0.294c0.373-0.238,0.454-0.792,0.562-1.183
				C551.358,640.734,551.363,640.261,551.071,640.082"/>
		</g>
	</g>
	<g clip-path="url(#SVGID_8_)">
		<g>
			<defs>
				<rect id="SVGID_77_" x="566.305" y="661.376" width="6.834" height="3.666"/>
			</defs>
			<clipPath id="SVGID_78_">
				<use xlink:href="#SVGID_77_"  overflow="visible"/>
			</clipPath>
			<path clip-path="url(#SVGID_78_)" fill="#EEB26F" d="M572.696,661.508c-1.176,1.492-3.969,1.696-5.5,0.633
				c-0.951-0.661-1.147,1.41-0.558,1.913c2.364,2.02,5.35,0.73,6.47-1.938C573.214,661.861,573.044,661.065,572.696,661.508"/>
		</g>
	</g>
	<g clip-path="url(#SVGID_8_)">
		<g>
			<defs>
				<rect id="SVGID_79_" x="573.005" y="611.604" width="6.15" height="5.639"/>
			</defs>
			<clipPath id="SVGID_80_">
				<use xlink:href="#SVGID_79_"  overflow="visible"/>
			</clipPath>
			<path clip-path="url(#SVGID_80_)" fill="#EEB26F" d="M578.327,613.999c-0.491-0.472-0.929-0.986-1.313-1.545
				c-0.226-0.266-0.492-0.482-0.798-0.649c-0.335-0.162-0.688-0.234-0.955-0.059c-0.192-0.128-0.404-0.188-0.633-0.1
				c-0.294,0.114-0.495,0.275-0.665,0.492c-0.202,0.065-0.384,0.167-0.526,0.333c-0.164,0.221-0.287,0.712-0.359,0.94
				c-0.24,0.753,0.157,1.582,0.602,2.171c0.565,0.751,1.338,1.303,2.242,1.557c0.782,0.22,1.423,0.042,2.208-0.118
				c0.563-0.114,0.998-0.667,1.024-1.227C579.186,615.131,578.778,614.45,578.327,613.999 M574.507,612.815
				c0.126,0.082,0.253,0.163,0.379,0.245c0.031,0.223,0.084,0.442,0.159,0.641c0.106,0.288,0.259,0.551,0.454,0.789
				C574.525,614.017,574.419,613.328,574.507,612.815"/>
		</g>
	</g>
	<g clip-path="url(#SVGID_8_)">
		<g>
			<defs>
				<rect id="SVGID_81_" x="554.991" y="592.118" width="2.462" height="3.389"/>
			</defs>
			<clipPath id="SVGID_82_">
				<use xlink:href="#SVGID_81_"  overflow="visible"/>
			</clipPath>
			<path clip-path="url(#SVGID_82_)" fill="#EEB26F" d="M556.863,592.124c-0.437,0.07-0.866,0.222-1.29,0.353
				c-0.839,0.259-0.6,1.605-0.336,2.174c0.361,0.775,1.345,1.344,1.706,0.247c0.141-0.429,0.31-0.847,0.452-1.273
				C557.509,593.289,557.511,592.021,556.863,592.124"/>
		</g>
	</g>
	<g clip-path="url(#SVGID_8_)">
		<g>
			<defs>
				<rect id="SVGID_83_" x="583.642" y="586.823" width="2.88" height="2.331"/>
			</defs>
			<clipPath id="SVGID_84_">
				<use xlink:href="#SVGID_83_"  overflow="visible"/>
			</clipPath>
			<path clip-path="url(#SVGID_84_)" fill="#EEB26F" d="M585.695,586.831c-0.604,0.11-1.105,0.432-1.683,0.619
				c-0.366,0.12-0.555,0.967-0.117,1.103c0.616,0.189,1.179,0.486,1.82,0.591C586.924,589.339,586.653,586.656,585.695,586.831"/>
		</g>
	</g>
	<g clip-path="url(#SVGID_8_)">
		<g>
			<defs>
				<rect id="SVGID_85_" x="548.766" y="567.077" width="8.011" height="5.185"/>
			</defs>
			<clipPath id="SVGID_86_">
				<use xlink:href="#SVGID_85_"  overflow="visible"/>
			</clipPath>
			<path clip-path="url(#SVGID_86_)" fill="#EEB26F" d="M552.148,567.077c-1.349,0.021-2.394,0.506-3.136,1.457
				c-0.592,0.922-0.024,1.934,0.728,2.536c1.077,0.864,2.561,1.223,3.92,1.19c0.659-0.009,1.294-0.135,1.906-0.378
				c0.498-0.192,0.9-0.505,1.21-0.937C555.753,568.442,554.211,567.153,552.148,567.077"/>
		</g>
	</g>
	<g clip-path="url(#SVGID_8_)">
		<g>
			<defs>
				<rect id="SVGID_87_" x="581.38" y="565.977" width="2.919" height="2.048"/>
			</defs>
			<clipPath id="SVGID_88_">
				<use xlink:href="#SVGID_87_"  overflow="visible"/>
			</clipPath>
			<path clip-path="url(#SVGID_88_)" fill="#EEB26F" d="M584.105,566.556c-0.72-0.212-1.379-0.477-2.126-0.575
				c-0.818-0.108-0.794,2.166,0.041,2.039c0.296-0.045,0.594-0.068,0.873-0.184c0.356-0.146,0.7-0.278,1.075-0.391
				C584.255,567.36,584.472,566.663,584.105,566.556"/>
		</g>
	</g>
	<g clip-path="url(#SVGID_8_)">
		<g>
			<defs>
				<rect id="SVGID_89_" x="620.481" y="569.149" width="1.82" height="1.692"/>
			</defs>
			<clipPath id="SVGID_90_">
				<use xlink:href="#SVGID_89_"  overflow="visible"/>
			</clipPath>
			<path clip-path="url(#SVGID_90_)" fill="#EEB26F" d="M622.236,569.617c-0.137-0.571-0.799-0.459-1.186-0.459
				c-0.7,0-0.779,1.684-0.101,1.684h0.8c0.379,0,0.544-0.507,0.553-0.812C622.307,569.87,622.272,569.765,622.236,569.617"/>
		</g>
	</g>
	<g clip-path="url(#SVGID_8_)">
		<g>
			<defs>
				<rect id="SVGID_91_" x="609.677" y="611.732" width="4.646" height="4.534"/>
			</defs>
			<clipPath id="SVGID_92_">
				<use xlink:href="#SVGID_91_"  overflow="visible"/>
			</clipPath>
			<path clip-path="url(#SVGID_92_)" fill="#EEB26F" d="M610.787,611.732c-2.809,0,0.354,4.535,2.426,4.535
				C616.021,616.268,612.859,611.732,610.787,611.732"/>
		</g>
	</g>
	<g clip-path="url(#SVGID_8_)">
		<g>
			<defs>
				<rect id="SVGID_93_" x="654.417" y="609.051" width="1.166" height="1.898"/>
			</defs>
			<clipPath id="SVGID_94_">
				<use xlink:href="#SVGID_93_"  overflow="visible"/>
			</clipPath>
			<path clip-path="url(#SVGID_94_)" fill="#EEB26F" d="M655.012,609.051c-0.779,0-0.798,1.898-0.022,1.898
				C655.769,610.949,655.786,609.051,655.012,609.051"/>
		</g>
	</g>
	<g clip-path="url(#SVGID_8_)">
		<g>
			<defs>
				<rect id="SVGID_95_" x="681.786" y="616.816" width="5.63" height="4.328"/>
			</defs>
			<clipPath id="SVGID_96_">
				<use xlink:href="#SVGID_95_"  overflow="visible"/>
			</clipPath>
			<path clip-path="url(#SVGID_96_)" fill="#EEB26F" d="M685.541,617.147c-0.188-0.07-0.376-0.135-0.566-0.193
				c-0.484-0.153-1.162-0.302-1.453,0.285c-0.056,0.123-0.135,0.234-0.21,0.347c-0.388-0.016-0.774-0.064-1.162-0.106
				c-0.275-0.03-0.507,0.574-0.258,0.717c0.709,0.405,1.358,0.68,1.819,1.393c0.55,0.853,1.622,1.229,2.529,1.513
				c0.797,0.249,1.217-0.614,1.173-1.254C687.342,618.822,686.548,617.507,685.541,617.147"/>
		</g>
	</g>
	<g clip-path="url(#SVGID_8_)">
		<g>
			<defs>
				<rect id="SVGID_97_" x="612.426" y="645.754" width="7.278" height="4.374"/>
			</defs>
			<clipPath id="SVGID_98_">
				<use xlink:href="#SVGID_97_"  overflow="visible"/>
			</clipPath>
			<path clip-path="url(#SVGID_98_)" fill="#EEB26F" d="M619.199,646.212c-0.757-0.238-1.523-0.287-2.3-0.438
				c-0.509-0.099-1.024,0.197-1.487,0.374c-1.136,0.436-1.779,1.327-2.684,2.043c-0.439,0.349-0.439,1.721,0.264,1.772
				c0.905,0.067,1.654,0.184,2.574,0.162c0.893-0.021,1.725-0.189,2.59-0.389c0.37-0.086,0.683-0.319,0.745-0.723
				c0.212-0.351,0.424-0.701,0.638-1.05C619.799,647.539,619.8,646.401,619.199,646.212"/>
		</g>
	</g>
	<g clip-path="url(#SVGID_8_)">
		<g>
			<defs>
				<rect id="SVGID_99_" x="681.307" y="637.878" width="1.387" height="2.244"/>
			</defs>
			<clipPath id="SVGID_100_">
				<use xlink:href="#SVGID_99_"  overflow="visible"/>
			</clipPath>
			<path clip-path="url(#SVGID_100_)" fill="#EEB26F" d="M681.925,637.878c-0.903,0-0.784,2.244,0.15,2.244
				C682.979,640.122,682.859,637.878,681.925,637.878"/>
		</g>
	</g>
	<g clip-path="url(#SVGID_8_)">
		<g>
			<defs>
				<rect id="SVGID_101_" x="662.581" y="591.741" width="2.154" height="2.508"/>
			</defs>
			<clipPath id="SVGID_102_">
				<use xlink:href="#SVGID_101_"  overflow="visible"/>
			</clipPath>
			<path clip-path="url(#SVGID_102_)" fill="#EEB26F" d="M664.729,592.916c-0.042-0.361-0.477-1.525-1.058-1.072
				c-0.256,0.198-0.523,0.377-0.79,0.558c-0.312,0.21-0.447,1.005-0.074,1.222c0.368,0.215,0.747,0.402,1.136,0.578
				C664.612,594.504,664.771,593.281,664.729,592.916"/>
		</g>
	</g>
	<g clip-path="url(#SVGID_8_)">
		<g>
			<defs>
				<rect id="SVGID_103_" x="643.454" y="558.041" width="3.092" height="3.918"/>
			</defs>
			<clipPath id="SVGID_104_">
				<use xlink:href="#SVGID_103_"  overflow="visible"/>
			</clipPath>
			<path clip-path="url(#SVGID_104_)" fill="#EEB26F" d="M644.256,558.041c-1.828,0-0.182,3.918,1.488,3.918
				C647.572,561.959,645.926,558.041,644.256,558.041"/>
		</g>
	</g>
	<g clip-path="url(#SVGID_8_)">
		<g>
			<defs>
				<rect id="SVGID_105_" x="652.107" y="561.352" width="2.921" height="3.272"/>
			</defs>
			<clipPath id="SVGID_106_">
				<use xlink:href="#SVGID_105_"  overflow="visible"/>
			</clipPath>
			<path clip-path="url(#SVGID_106_)" fill="#EEB26F" d="M655.014,563.147c-0.075-0.591-0.479-1.662-1.213-1.715
				c-0.291-0.021-0.582-0.039-0.873-0.074c-1.443-0.176-0.867,3.49,0.82,3.254c0.234-0.043,0.473-0.063,0.712-0.062
				C655.024,564.507,655.06,563.514,655.014,563.147"/>
		</g>
	</g>
	<g clip-path="url(#SVGID_8_)">
		<g>
			<defs>
				<rect id="SVGID_107_" x="711.458" y="558.936" width="8.282" height="6.045"/>
			</defs>
			<clipPath id="SVGID_108_">
				<use xlink:href="#SVGID_107_"  overflow="visible"/>
			</clipPath>
			<path clip-path="url(#SVGID_108_)" fill="#EEB26F" d="M718.95,560.534c-0.37-0.444-0.862-0.859-1.407-1.146
				c0.473,0.016,0.374-0.102-0.341-0.359c-0.406-0.115-0.818-0.123-1.235-0.024c-0.604,0.053-1.256,0.369-1.821,0.575
				c-0.608,0.221-1.168,0.652-1.479,1.215c-0.231,0.124-0.462,0.249-0.693,0.374c-1.396,0.76,0.334,4.174,1.731,3.779
				c1.818-0.515,3.688-0.581,5.391-1.496C720.278,562.816,719.593,561.301,718.95,560.534"/>
		</g>
	</g>
	<g clip-path="url(#SVGID_8_)">
		<g>
			<defs>
				<rect id="SVGID_109_" x="773.438" y="558.138" width="3.527" height="3.702"/>
			</defs>
			<clipPath id="SVGID_110_">
				<use xlink:href="#SVGID_109_"  overflow="visible"/>
			</clipPath>
			<path clip-path="url(#SVGID_110_)" fill="#EEB26F" d="M776.859,559.971c-0.143-0.472-0.472-1.067-0.913-1.447
				c0.04,0.019,0.08,0.036,0.12,0.055c-0.077-0.049-0.155-0.102-0.233-0.151c-0.069-0.051-0.144-0.088-0.217-0.126
				c-0.018-0.009-0.034-0.018-0.053-0.027c-0.052-0.023-0.104-0.047-0.158-0.063c-0.118-0.043-0.237-0.074-0.368-0.071
				c-0.166,0.004-0.382,0.097-0.546,0.153c-0.36,0.125-0.638,0.772-0.858,1.051c-0.334,0.422-0.223,1.227,0.197,1.534
				c0.615,0.451,1.247,0.762,1.989,0.929C776.966,562.063,777.11,560.801,776.859,559.971"/>
		</g>
	</g>
	<g clip-path="url(#SVGID_8_)">
		<g>
			<defs>
				<rect id="SVGID_111_" x="554.502" y="688.822" width="2.643" height="4.001"/>
			</defs>
			<clipPath id="SVGID_112_">
				<use xlink:href="#SVGID_111_"  overflow="visible"/>
			</clipPath>
			<path clip-path="url(#SVGID_112_)" fill="#EEB26F" d="M556.816,689.889c-0.078-0.126-0.15-0.257-0.236-0.377
				c-0.208-0.29-0.466-0.515-0.8-0.643c-0.366-0.14-0.672,0.052-0.891,0.318c-0.5,0.356-0.434,1.271-0.261,1.8
				c0.164,0.5,0.449,0.976,0.833,1.338c0.119,0.093,0.239,0.187,0.358,0.279c0.218,0.145,0.457,0.218,0.718,0.219
				C557.24,691.77,557.333,690.791,556.816,689.889"/>
		</g>
	</g>
	<g clip-path="url(#SVGID_8_)">
		<g>
			<defs>
				<rect id="SVGID_113_" x="477.684" y="741.592" width="10.147" height="7.564"/>
			</defs>
			<clipPath id="SVGID_114_">
				<use xlink:href="#SVGID_113_"  overflow="visible"/>
			</clipPath>
			<path clip-path="url(#SVGID_114_)" fill="#EEB26F" d="M485.909,742.789c-1.423-0.378-3.28-1.048-4.887-1.192
				c-0.732-0.066-1.122,0.608-1.149,1.229c-0.02,0.231,0,0.461,0.025,0.692c-0.295-0.106-0.531,0.07-0.7,0.554
				c0.088-0.198,0.177-0.398,0.266-0.598c-0.288,0.503-0.627,0.976-0.954,1.456c-0.394,0.477-0.73,0.994-0.811,1.635
				c-0.115,0.922,0.426,1.683,1.213,2.097c1.013,0.534,2.259,0.572,3.363,0.41c0.915-0.138,1.785-0.416,2.61-0.832
				c0.731-0.362,1.374-0.844,1.927-1.442c0.021,0.341,0.222,0.112,0.602-0.685C488.506,744.808,487.255,743.145,485.909,742.789"/>
		</g>
	</g>
	<g clip-path="url(#SVGID_8_)">
		<g>
			<defs>
				<rect id="SVGID_115_" x="413.664" y="752.146" width="3.946" height="3.709"/>
			</defs>
			<clipPath id="SVGID_116_">
				<use xlink:href="#SVGID_115_"  overflow="visible"/>
			</clipPath>
			<path clip-path="url(#SVGID_116_)" fill="#EEB26F" d="M417.58,753.718c-0.25-1.357-2.035-1.431-3.12-1.564
				c-0.932-0.116-0.854,1.357-0.707,1.864c0.144,0.487,0.403,0.955,0.763,1.316c0.219,0.22,0.671,0.583,1.023,0.513
				c0.538-0.108,1.397-0.101,1.715-0.649C417.521,754.737,417.681,754.26,417.58,753.718"/>
		</g>
	</g>
	<g clip-path="url(#SVGID_8_)">
		<g>
			<defs>
				<rect id="SVGID_117_" x="443.593" y="778.638" width="3.976" height="2.647"/>
			</defs>
			<clipPath id="SVGID_118_">
				<use xlink:href="#SVGID_117_"  overflow="visible"/>
			</clipPath>
			<path clip-path="url(#SVGID_118_)" fill="#EEB26F" d="M447.058,779.217c-0.578-0.188-1.154-0.386-1.737-0.558
				c-0.211-0.063-0.391,0.015-0.518,0.167c-0.291,0.002-0.581,0.005-0.872,0.007c-0.327,0.003-0.456,0.767-0.205,0.927
				c0.21,0.134,0.421,0.268,0.633,0.398c0.244,0.151,0.454,0.519,0.72,0.603c0.568,0.182,1.146,0.336,1.719,0.501
				C447.722,781.527,447.821,779.465,447.058,779.217"/>
		</g>
	</g>
	<g clip-path="url(#SVGID_8_)">
		<g>
			<defs>
				<rect id="SVGID_119_" x="371.595" y="766.106" width="2.949" height="3.806"/>
			</defs>
			<clipPath id="SVGID_120_">
				<use xlink:href="#SVGID_119_"  overflow="visible"/>
			</clipPath>
			<path clip-path="url(#SVGID_120_)" fill="#EEB26F" d="M373.616,766.597c0.14,0.083,0.117,0.063-0.065-0.061
				c-0.128-0.105-0.261-0.182-0.4-0.239c-0.035-0.017-0.069-0.038-0.106-0.052c-0.006-0.002-0.012-0.007-0.018-0.009
				c0.004,0.002,0.007,0.004,0.011,0.007c-0.098-0.038-0.199-0.069-0.304-0.088c-1.187-0.33-1.277,1.128-1.024,1.902
				c0.164,0.5,0.449,0.977,0.833,1.34c0.309,0.291,0.953,0.711,1.396,0.413c0.025-0.018,0.05-0.034,0.075-0.052
				C374.986,769.105,374.485,767.375,373.616,766.597"/>
		</g>
	</g>
	<g clip-path="url(#SVGID_8_)">
		<g>
			<defs>
				<rect id="SVGID_121_" x="539.5" y="751.016" width="8.405" height="8.607"/>
			</defs>
			<clipPath id="SVGID_122_">
				<use xlink:href="#SVGID_121_"  overflow="visible"/>
			</clipPath>
			<path clip-path="url(#SVGID_122_)" fill="#EEB26F" d="M547.425,755.65c-0.442-0.591-0.96-1.092-1.495-1.583
				c0.042-0.806-0.424-1.651-0.946-2.211c-0.405-0.434-1.866-1.408-2.28-0.396c-0.131,0.321-0.273,0.636-0.41,0.955
				c-0.06,0.046-0.125,0.077-0.178,0.142c-0.705,0.864-1.351,1.837-2.153,2.631c0.067-0.025,0.135-0.052,0.201-0.078
				c-0.084,0.093-0.167,0.185-0.248,0.267c-0.925,0.932-0.127,2.21,0.673,2.892c1.249,1.066,3.342,1.771,4.93,1.079
				c0.646-0.282,1.22-0.621,1.746-1.098C548.108,757.482,548.073,756.519,547.425,755.65"/>
		</g>
	</g>
	<g clip-path="url(#SVGID_8_)">
		<g>
			<defs>
				<rect id="SVGID_123_" x="609.418" y="734.021" width="3.164" height="3.957"/>
			</defs>
			<clipPath id="SVGID_124_">
				<use xlink:href="#SVGID_123_"  overflow="visible"/>
			</clipPath>
			<path clip-path="url(#SVGID_124_)" fill="#EEB26F" d="M610.212,734.021c-1.845,0-0.121,3.958,1.576,3.958
				C613.633,737.979,611.909,734.021,610.212,734.021"/>
		</g>
	</g>
	<g clip-path="url(#SVGID_8_)">
		<g>
			<defs>
				<rect id="SVGID_125_" x="608.655" y="773.078" width="3.765" height="4.518"/>
			</defs>
			<clipPath id="SVGID_126_">
				<use xlink:href="#SVGID_125_"  overflow="visible"/>
			</clipPath>
			<path clip-path="url(#SVGID_126_)" fill="#EEB26F" d="M611.995,774.518c-0.288-0.542-1.016-1.415-1.746-1.339
				c-0.099-0.091-0.222-0.134-0.364-0.071c-0.46,0.196-0.635,0.56-0.944,0.973c-0.716,0.959,0.036,2.545,0.893,3.15
				c0.56,0.396,1.26,0.494,1.88,0.173C612.781,776.85,612.436,775.349,611.995,774.518"/>
		</g>
	</g>
	<g clip-path="url(#SVGID_8_)">
		<g>
			<defs>
				<rect id="SVGID_127_" x="565.935" y="722.864" width="4.321" height="4.898"/>
			</defs>
			<clipPath id="SVGID_128_">
				<use xlink:href="#SVGID_127_"  overflow="visible"/>
			</clipPath>
			<path clip-path="url(#SVGID_128_)" fill="#EEB26F" d="M570.2,725.658c-0.146-0.638-0.521-1.22-0.969-1.688
				c-0.447-0.467-1.012-0.867-1.644-1.042c-0.458-0.127-1.509-0.121-1.594,0.574c-0.083,0.669-0.108,1.087,0.121,1.721
				c0.3,0.828,0.954,1.551,1.635,2.094c0.492,0.391,1.375,0.738,1.813,0.066c0.048-0.073,0.074-0.158,0.104-0.238
				c0.018,0.053,0.033,0.106,0.051,0.16c0.049-0.073,0.084-0.153,0.122-0.231c0.019-0.011,0.046-0.031,0.089-0.071
				C570.311,726.708,570.293,726.065,570.2,725.658"/>
		</g>
	</g>
	<path clip-path="url(#SVGID_8_)" fill="#F3750F" d="M609,618c0,3.038-83.723,5.5-187,5.5c-103.277,0-187-2.462-187-5.5
		s83.723-5.5,187-5.5C525.277,612.5,609,614.962,609,618"/>
	<rect x="252.5" y="537" clip-path="url(#SVGID_8_)" fill="#3A2920" width="337" height="47"/>
	<path clip-path="url(#SVGID_8_)" fill="#FFBE2E" d="M237.75,576.5c0,0-5.25-10.75-4.5-23.75s20.5-73,20.5-73S255,471.5,267,467
		c0,0,11.75-4.25,15.75-11.5s20-51.75,20-51.75s0.583-11.583-9.083-14.417c0,0-1.834-2,0.333-3.166
		c2.167-1.167,11.833-4.834,20.833-5.167c0,0,8.667-5.333,16.5-7c7.834-1.667,145.667,0,145.667,0s11.75,1.25,17.25,9.75
		l-11.875,4.875c0,0-6.375,1.375-4,9.75s18.375,61.375,18.375,61.375s7.5,10,26,7L599.5,503c0,0,6.25,2.5,6.25,10.75v59.75
		c0,0,1.5,12.75-23,15.5c0,0-3.417-44.667-36-44.667c-42.083,0-43,44.667-43,44.667H339c0,0-1-44.75-38.25-44.75
		S259.5,589,259.5,589S251.25,591.25,237.75,576.5"/>
	<polygon clip-path="url(#SVGID_8_)" fill="#FFF474" points="560.667,490.5 275.75,490.5 279.583,477 531.5,477 	"/>
	<path clip-path="url(#SVGID_8_)" fill="#FFFFFB" d="M294.815,389.736l-32.184,79.31c0,0,16.305-5.832,19.537-12.601
		s20.582-52.694,20.582-52.694S303.38,392.223,294.815,389.736"/>
	<path clip-path="url(#SVGID_8_)" fill="#FFFFFB" d="M310,463.5h56.25c0,0,6.125-0.375,6.25-7s-3-60.5-3-60.5
		s-0.125-4.25-4.875-4.25h-31.75c0,0-10.375,0.125-16,15.375S301.125,455,301.125,455S298.125,463.5,310,463.5"/>
	<path clip-path="url(#SVGID_8_)" fill="#FFFFFB" d="M378.75,395.75l6.5,61.875c0,0,0,5.875,7.625,5.875H487l-23.5-71.75h-81.25
		C382.25,391.75,378.43,392.705,378.75,395.75"/>
	<path clip-path="url(#SVGID_8_)" fill="#FFFFFB" d="M494.25,383.75l28.5,83c0,0-16.625,4.125-26-7l-18.375-61.375
		c0,0-2.356-5.351,1.76-8.613C484.25,386.5,494.25,383.75,494.25,383.75"/>
	<path clip-path="url(#SVGID_8_)" fill="#A54143" d="M253.75,479.75c0,0-5.917-0.917-7.75,3.083s-11.333,36.5-11.333,36.5
		s-0.549,4.922,5.308,4.922c5.858,0,7.525-3.922,7.525-3.922l11.333-36.5C258.833,483.833,258.975,479.114,253.75,479.75"/>
	<path clip-path="url(#SVGID_8_)" fill="#739191" d="M581.544,588.055c0,0,5.122-12.722,16.122-13.555
		c11-0.834,13.5,3.666,13.5,3.666S610.833,592,605.75,596C600.666,600,577.922,599.442,581.544,588.055"/>
	<path clip-path="url(#SVGID_8_)" fill="#739191" d="M233.167,556.833c0,0-7,1.25-7.5,8s0.5,14.5,0.5,14.5s0,4.25,6.75,4.5
		s14,0.5,14,0.5s8-1.25,8.75-7.75s-1.25-12.5-1.25-12.5l-20.75-1.5L233.167,556.833z"/>
	
		<line clip-path="url(#SVGID_8_)" fill="none" stroke="#F48011" stroke-width="6" stroke-linecap="round" stroke-miterlimit="10" x1="276.5" y1="497" x2="565" y2="497"/>
	<path clip-path="url(#SVGID_8_)" fill="none" stroke="#F48011" stroke-miterlimit="10" d="M380,497.333l-1.667,85
		c0,0,119.667,1.667,119.667,0v-85.667l-5.667-33.333l-25.666-77h-93.334L380,497.333z"/>
	<path clip-path="url(#SVGID_8_)" fill="#739191" d="M474,460.333c0,9.573-2.537,17.333-5.667,17.333
		c-3.129,0-5.666-7.76-5.666-17.333c0-9.572,2.537-17.333,5.666-17.333C471.463,443,474,450.761,474,460.333"/>
	<path clip-path="url(#SVGID_8_)" fill="#3F3832" d="M334,586.5c0,18.778-15.222,34-34,34s-34-15.222-34-34s15.222-34,34-34
		S334,567.722,334,586.5"/>
	<path clip-path="url(#SVGID_8_)" fill="#D7C8CB" d="M323.75,586.5c0,13.117-10.633,23.75-23.75,23.75s-23.75-10.633-23.75-23.75
		s10.633-23.75,23.75-23.75S323.75,573.383,323.75,586.5"/>
	<path clip-path="url(#SVGID_8_)" fill="#739191" d="M314,586.5c0,7.732-6.268,14-14,14s-14-6.268-14-14s6.268-14,14-14
		S314,578.768,314,586.5"/>
	<path clip-path="url(#SVGID_8_)" fill="#3F3832" d="M577.5,586.5c0,18.778-15.222,34-34,34s-34-15.222-34-34s15.222-34,34-34
		S577.5,567.722,577.5,586.5"/>
	<path clip-path="url(#SVGID_8_)" fill="#D7C8CB" d="M567.75,586.5c0,13.117-10.633,23.75-23.75,23.75s-23.75-10.633-23.75-23.75
		s10.633-23.75,23.75-23.75S567.75,573.383,567.75,586.5"/>
	<path clip-path="url(#SVGID_8_)" fill="#739191" d="M558,586.5c0,7.732-6.268,14-14,14s-14-6.268-14-14s6.268-14,14-14
		S558,578.768,558,586.5"/>
	<g opacity="0.4" clip-path="url(#SVGID_8_)">
		<g>
			<defs>
				<rect id="SVGID_129_" x="226.291" y="558.849" width="28.231" height="16.158"/>
			</defs>
			<clipPath id="SVGID_130_">
				<use xlink:href="#SVGID_129_"  overflow="visible"/>
			</clipPath>
			<path clip-path="url(#SVGID_130_)" fill="#EDEBEB" d="M232.736,560.126c-0.054-0.311-0.115-0.635-0.31-0.883
				c-0.334-0.424-0.984-0.486-1.483-0.279c-0.499,0.208-0.877,0.625-1.215,1.047c-2.065,2.577-3.284,5.819-3.429,9.119
				c-0.02,0.451-0.016,0.923,0.182,1.329c0.273,0.559,0.857,0.887,1.414,1.163c6.487,3.212,14.014,3.962,21.187,2.988
				c1.832-0.248,3.863-0.745,4.828-2.322c0.672-1.099,0.657-2.473,0.568-3.758c-0.042-0.607-0.102-1.234-0.392-1.771
				c-0.706-1.308-2.428-1.583-3.908-1.709l-15.594-1.326c-0.462-0.04-0.99-0.118-1.234-0.511c-0.101-0.162-0.136-0.355-0.168-0.542
				C233.033,561.822,232.885,560.974,232.736,560.126"/>
		</g>
	</g>
	<g opacity="0.4" clip-path="url(#SVGID_8_)">
		<g>
			<defs>
				<rect id="SVGID_131_" x="583.365" y="576.072" width="25.189" height="16.502"/>
			</defs>
			<clipPath id="SVGID_132_">
				<use xlink:href="#SVGID_131_"  overflow="visible"/>
			</clipPath>
			<path clip-path="url(#SVGID_132_)" fill="#EDEBEB" d="M607.62,579.763c0.389-0.205,0.816-0.46,0.914-0.888
				c0.151-0.662-0.564-1.175-1.188-1.442c-5.106-2.194-11.278-1.707-15.977,1.259c-4.698,2.967-7.792,8.33-8.006,13.883
				C591.449,588.304,599.535,584.033,607.62,579.763"/>
		</g>
	</g>
	<g opacity="0.4" clip-path="url(#SVGID_8_)">
		<g>
			<defs>
				<rect id="SVGID_133_" x="532.301" y="575.446" width="23.384" height="14.751"/>
			</defs>
			<clipPath id="SVGID_134_">
				<use xlink:href="#SVGID_133_"  overflow="visible"/>
			</clipPath>
			<path clip-path="url(#SVGID_134_)" fill="#EDEBEB" d="M554.691,581.307c-1.438-2.47-3.751-4.45-6.467-5.341
				c-2.715-0.891-5.815-0.645-8.282,0.8c-1.163,0.683-2.168,1.605-3.09,2.59c-2.427,2.595-4.39,5.841-4.552,9.39
				c1.379-0.822,3.126-0.72,4.674-0.295c1.548,0.424,3.009,1.139,4.576,1.487c3.146,0.699,6.415-0.134,9.49-1.094
				c1.746-0.545,3.676-1.306,4.381-2.994C556.034,584.382,555.492,582.682,554.691,581.307"/>
		</g>
	</g>
	<g opacity="0.4" clip-path="url(#SVGID_8_)">
		<g>
			<defs>
				<rect id="SVGID_135_" x="288.435" y="575.658" width="22.983" height="14.159"/>
			</defs>
			<clipPath id="SVGID_136_">
				<use xlink:href="#SVGID_135_"  overflow="visible"/>
			</clipPath>
			<path clip-path="url(#SVGID_136_)" fill="#EDEBEB" d="M301.712,575.673c-3.655-0.188-7.351,1.351-9.837,4.037
				c-2.485,2.687-3.729,6.464-3.384,10.107c1.464-2.275,4.624-2.805,7.287-2.328s5.149,1.716,7.82,2.146
				c2.671,0.432,5.833-0.219,7.178-2.565c0.823-1.436,0.788-3.239,0.267-4.811C309.769,578.42,305.753,575.881,301.712,575.673"/>
		</g>
	</g>
	<polygon clip-path="url(#SVGID_8_)" fill="#FFFFFB" points="184.552,348.459 163.869,352.055 163.448,354.356 183.88,356.098 	"/>
	<polygon clip-path="url(#SVGID_8_)" fill="#D83939" points="179,347 452.5,310 454.5,319 466.5,317 468,326 474.5,326 475,342.5 
		464,344.5 464,354.5 180,358 	"/>
	<polygon clip-path="url(#SVGID_8_)" fill="#FFFFFF" points="180,355 464,344.5 464,354.5 	"/>
	<polygon clip-path="url(#SVGID_8_)" fill="#FFFFFF" points="179.333,351 466.5,317 468,326 	"/>
	<path clip-path="url(#SVGID_8_)" fill="#FFF46A" d="M269.996,358.548c-1.992,0.032-2.574,2.738-0.765,3.574
		c9.943,4.593,31.019,12.11,62.102,11.878c42.444-0.317,187.218-0.935,216.97-17.297c1.28-0.704,0.751-2.656-0.71-2.632
		L269.996,358.548z"/>
	<path clip-path="url(#SVGID_8_)" fill="#FFF46A" d="M502,355.42c0,0,6.493-14.493,15.884-18.087c0,0-5.101,6.261-6.725,18.667
		L502,355.42z"/>
	<rect x="340" y="328.333" clip-path="url(#SVGID_8_)" fill="#70AE97" width="113" height="28.667"/>
	<rect x="359.666" y="302.667" clip-path="url(#SVGID_8_)" fill="#E58656" width="79.667" height="27"/>
	<polygon clip-path="url(#SVGID_8_)" fill="#FFFFFB" points="475,334.5 604,336.5 603.5,341 474,338.5 	"/>
	
		<line clip-path="url(#SVGID_8_)" fill="none" stroke="#AA4B22" stroke-width="0.994" stroke-linejoin="round" stroke-miterlimit="10" x1="360" y1="316.25" x2="439.313" y2="316.25"/>
	<rect x="373.083" y="313.833" clip-path="url(#SVGID_8_)" fill="#FCC1A7" width="8.75" height="5"/>
	<rect x="415.083" y="313.833" clip-path="url(#SVGID_8_)" fill="#FCC1A7" width="8.75" height="5"/>
	<path clip-path="url(#SVGID_8_)" fill="#FCC1A7" d="M387.417,316.5c0,0-0.25,4.917,2.083,4.917h18.417c0,0,2.333,0,2.333-5.167
		h-4.166c0,0-0.084,3.25-1.334,3.333c-1.25,0.084-12.667,0-12.667,0s-1.5-0.166-1.5-3.083H387.417z"/>
	<rect x="340" y="328.333" clip-path="url(#SVGID_8_)" fill="#89CEB2" width="20.25" height="28.667"/>
	
		<line clip-path="url(#SVGID_8_)" fill="none" stroke="#36755B" stroke-miterlimit="10" x1="340.25" y1="343.25" x2="452.75" y2="343.25"/>
	<rect x="374.625" y="340.5" clip-path="url(#SVGID_8_)" fill="#36755B" width="15.375" height="5.375"/>
	<rect x="425.625" y="340.5" clip-path="url(#SVGID_8_)" fill="#36755B" width="15.375" height="5.375"/>
	<path clip-path="url(#SVGID_8_)" fill="#89CEB2" d="M395.792,342.875c0,0-0.25,4.917,2.083,4.917h18.417c0,0,2.333,0,2.333-5.167
		h-4.166c0,0-0.084,3.25-1.334,3.333c-1.25,0.084-12.666,0-12.666,0s-1.5-0.166-1.5-3.083H395.792z"/>
	<path clip-path="url(#SVGID_8_)" fill="#FFF46A" d="M515.167,355.833c0,0,9.333-20.833,22.833-26c0,0-7.333,9-9.666,26.833
		L515.167,355.833z"/>
</g>
<g>
	<defs>
		<rect id="SVGID_137_" width="800" height="800"/>
	</defs>
	<clipPath id="SVGID_138_">
		<use xlink:href="#SVGID_137_"  overflow="visible"/>
	</clipPath>
</g>
<rect fill="none" width="800" height="800"/>
</svg>
