<?xml version="1.0" encoding="utf-8"?>
<!-- Generator: Adobe Illustrator 16.0.0, SVG Export Plug-In . SVG Version: 6.00 Build 0)  -->
<!DOCTYPE svg PUBLIC "-//W3C//DTD SVG 1.1//EN" "http://www.w3.org/Graphics/SVG/1.1/DTD/svg11.dtd">
<svg version="1.1" id="Layer_1" xmlns="http://www.w3.org/2000/svg" xmlns:xlink="http://www.w3.org/1999/xlink" x="0px" y="0px"
	 width="612px" height="792px" viewBox="0 0 612 792" enable-background="new 0 0 612 792" xml:space="preserve">
<polyline fill="#A8A8A8" stroke="#A8A8A8" stroke-width="0.8416" stroke-miterlimit="10" points="104.275,390.831 173.363,336.396 
	236.867,286.359 163.683,329.136 "/>
<polygon fill="#A8A8A8" stroke="#A8A8A8" stroke-width="0.8416" stroke-miterlimit="10" points="240.312,288.007 265.276,301.164 
	283.358,320.087 301.437,339.005 319.52,357.926 326.406,365.329 250.065,296.773 "/>
<polygon fill="#A8A8A8" stroke="#A8A8A8" stroke-width="0.8416" stroke-miterlimit="10" points="95.667,519.976 208.457,516.687 
	245.479,517.508 293.691,517.508 328.987,519.149 356.542,523.264 382.372,526.552 411.646,533.133 428.863,537.246 
	446.941,540.535 453.829,545.474 489.993,541.359 432.308,529.023 407.34,524.911 389.257,520.797 360.849,517.508 332.437,515.04 
	291.969,512.57 246.336,510.928 197.261,509.28 137.854,510.928 108.581,508.456 99.972,510.103 "/>
<polyline fill="#A8A8A8" stroke="#A8A8A8" stroke-width="0.8416" stroke-miterlimit="10" points="105.137,394.122 108.581,401.52 
	114.607,405.634 119.775,408.928 128.382,413.037 132.688,413.037 129.247,425.374 127.521,441.827 124.938,459.101 
	122.358,473.909 118.914,490.362 118.053,500.236 117.188,507.639 144.739,509.28 149.909,499.41 155.934,490.362 160.238,482.136 
	166.266,482.958 175.733,485.425 186.929,487.068 197.261,487.068 206.734,482.136 224.812,481.309 234.285,479.669 
	239.448,479.669 228.256,473.909 220.511,476.377 205.011,477.203 193.817,478.026 180.039,475.556 174.016,474.731 
	168.849,478.026 152.489,482.136 145.604,480.493 136.131,476.377 132.688,473.089 139.577,472.267 143.882,473.909 
	159.377,474.731 167.126,473.089 178.32,471.442 199.841,459.101 192.96,459.931 183.773,459.931 178.031,461.021 170.57,456.638 
	164.833,456.085 156.223,457.734 149.333,457.734 137.854,452.249 150.48,449.508 164.254,447.865 178.606,452.797 199.841,451.15 
	208.457,449.508 215.911,449.508 249.209,439.09 225.674,440.188 203.861,440.733 185.496,436.344 172.293,433.604 142.445,435.795 
	159.092,429.215 171.144,427.023 179.181,424.832 197.55,428.673 209.601,430.307 222.804,430.86 237.729,428.673 249.209,427.572 
	262.982,430.307 275.613,427.023 290.534,423.183 297.993,420.992 306.604,423.183 316.361,425.925 323.254,427.023 
	320.957,414.956 310.048,414.409 307.754,413.86 321.528,410.566 324.4,411.125 324.972,417.698 345.059,418.25 365.151,417.698 
	378.927,410.023 366.876,408.381 361.705,404.54 359.413,399.054 359.413,396.862 366.876,396.862 376.06,397.953 386.391,394.122 
	375.482,393.021 365.724,385.347 362.856,383.698 354.821,384.246 354.246,377.666 368.019,364.506 382.947,359.021 
	404.182,376.027 421.977,395.762 436.322,412.765 447.233,425.925 445.51,414.956 440.918,404.54 438.05,396.314 432.879,388.087 
	426.566,380.412 421.977,374.377 408.773,367.795 393.272,357.926 382.372,351.894 379.498,351.346 370.893,353.537 
	362.856,355.184 354.821,356.832 349.077,360.667 342.195,365.604 333.584,371.638 336.451,376.575 341.618,385.895 
	349.077,396.862 350.802,403.991 346.205,406.731 335.88,400.15 335.302,405.634 331.288,407.828 312.346,403.991 293.406,402.343 
	276.76,406.731 275.031,395.762 267.577,402.343 264.705,404.54 240.025,402.343 199.841,401.252 207.305,382.604 190.663,396.862 
	188.365,399.054 167.703,401.8 151.057,401.252 136.703,395.762 129.818,399.605 124.076,393.574 120.061,390.831 152.775,360.117 
	157.945,368.344 175.162,365.054 181.477,368.891 197.55,362.315 188.939,360.667 184.921,356.277 163.107,355.735 167.126,344.216 
	190.087,329.409 197.55,337.633 214.768,331.053 231.411,340.376 254.946,335.442 235.429,332.153 230.839,323.38 205.586,326.121 
	205.011,320.635 240.598,297.602 253.798,306.925 268.724,318.985 276.76,325.025 287.663,334.895 300.29,349.147 312.346,359.57 
	319.805,362.859 326.406,365.329 "/>
<polygon fill="#A8A8A8" stroke="#A8A8A8" stroke-width="0.8416" stroke-miterlimit="10" points="343.339,508.731 341.618,501.057 
	393.852,501.871 411.646,502.152 427.716,503.8 443.785,504.891 454.692,506.538 494.478,511.121 502.333,512.021 465.599,511.475 
	430.583,510.928 388.114,509.828 "/>
<polygon fill="#A8A8A8" stroke="#A8A8A8" stroke-width="0.8416" stroke-miterlimit="10" points="394.999,489.539 396.716,479.117 
	399.015,468.699 403.61,458.829 406.478,456.638 409.926,463.767 413.363,473.089 415.661,479.117 418.533,485.149 419.108,491.732 
	422.549,496.121 423.695,500.505 401.891,496.121 396.145,497.217 393.852,501.871 "/>
<polygon fill="#A8A8A8" stroke="#A8A8A8" stroke-width="0.8416" stroke-miterlimit="10" points="428.287,447.317 431.73,455.536 
	435.18,467.056 437.475,476.927 440.342,487.896 442.064,495.573 444.934,502.152 440.342,503.252 435.18,490.636 428.863,475.828 
	424.848,468.155 "/>
<polygon fill="#A8A8A8" stroke="#A8A8A8" stroke-width="0.8416" stroke-miterlimit="10" points="342.195,482.958 330.713,456.638 
	327.845,434.701 335.88,431.412 347.359,429.215 353.093,429.215 359.413,429.215 369.172,427.023 377.205,427.023 382.947,427.572 
	392.7,429.77 400.165,431.962 409.926,431.962 421.977,431.962 432.308,431.962 438.621,434.701 436.322,438.538 434.031,440.733 
	430.012,442.928 425.424,445.667 414.513,444.021 406.478,446.765 396.145,451.15 381.221,449.508 354.246,452.249 378.927,457.734 
	369.743,462.666 343.339,462.666 359.413,468.699 "/>
<polygon fill="#A8A8A8" stroke="#A8A8A8" stroke-width="0.8416" stroke-miterlimit="10" points="262.982,509.28 269.87,458.829 
	288.811,436.894 296.273,436.894 302.584,452.797 306.032,463.767 308.329,471.442 311.198,485.149 314.063,497.766 314.64,506.538 
	312.917,509.28 310.048,508.731 298.569,464.313 290.534,474.185 292.83,508.731 "/>
<polygon fill="#A8A8A8" stroke="#A8A8A8" stroke-width="0.8416" stroke-miterlimit="10" points="324.972,417.698 324.4,406.731 
	332.437,406.184 336.451,402.891 335.88,400.15 346.205,406.731 350.802,403.991 351.95,402.343 333.584,371.638 354.821,356.832 
	379.498,351.346 411.646,368.344 421.977,374.377 432.879,388.087 438.05,396.314 443.785,410.023 447.233,425.925 441.493,420.442 
	429.438,405.082 409.926,382.055 382.947,359.021 368.019,364.506 354.246,377.666 354.821,384.246 365.724,385.347 
	375.482,393.021 386.391,394.122 380.649,397.411 359.413,396.862 361.134,402.343 366.876,408.381 378.927,410.023 
	367.452,417.154 345.059,418.25 "/>
<polygon fill="#A8A8A8" stroke="#A8A8A8" stroke-width="0.8416" stroke-miterlimit="10" points="144.739,509.28 162.536,482.958 
	175.733,485.425 181.477,486.246 189.511,487.348 197.261,487.068 206.734,484.05 215.34,482.41 222.804,480.766 227.391,479.669 
	239.448,479.669 228.256,473.909 215.911,476.377 205.011,477.203 193.817,478.026 184.345,476.377 174.016,474.731 
	165.408,480.218 147.612,480.218 139.577,478.021 132.688,473.089 130.965,470.891 139.577,472.267 145.89,473.089 152.203,474.18 
	159.377,474.731 167.126,473.089 178.32,471.442 183.773,468.699 190.663,464.862 197.55,460.473 199.841,459.101 192.96,459.931 
	183.773,459.931 178.031,461.021 170.57,456.638 161.961,456.635 153.925,458.277 145.89,457.734 137.854,452.249 153.353,449.508 
	164.254,447.865 178.606,452.797 196.975,451.7 205.586,450.057 215.911,449.508 222.804,447.859 229.693,445.667 249.209,439.09 
	225.674,440.188 203.861,440.733 172.293,433.604 142.445,435.795 151.057,431.962 161.961,429.77 179.181,424.832 216.493,432.504 
	249.209,427.572 265.849,430.86 297.993,420.992 323.254,427.023 320.957,414.956 310.048,414.409 307.754,413.86 321.528,410.566 
	320.957,406.731 312.346,403.991 293.406,402.343 284.219,404.54 276.76,406.731 275.031,395.762 264.705,404.54 231.991,402.343 
	211.896,401.248 199.841,401.252 207.305,382.604 188.365,399.054 151.057,401.252 136.703,395.762 129.818,399.605 
	120.061,390.831 152.775,360.117 157.945,368.344 175.162,365.054 180.906,371.638 197.55,362.315 188.939,360.667 184.921,356.277 
	163.107,355.735 167.126,344.216 190.087,329.409 197.55,337.633 214.768,331.053 231.411,340.376 254.946,335.442 235.429,332.153 
	230.839,323.38 205.586,326.121 205.011,320.635 240.598,297.602 275.031,323.371 294.549,343.667 312.346,359.57 324.4,365.054 
	328.416,365.601 312.346,349.697 285.367,322.278 269.87,306.376 260.113,299.797 236.867,286.359 215.911,298.15 199.841,306.925 
	179.753,319.536 166.552,328.86 151.057,343.119 140.723,352.988 119.486,374.377 105.712,388.632 106.859,399.054 111.449,403.991 
	123.505,410.566 132.688,413.037 126.374,447.859 122.358,473.909 116.617,497.766 117.188,507.639 "/>
<polygon fill="#A8A8A8" stroke="#A8A8A8" stroke-width="0.8416" stroke-miterlimit="10" points="203.285,457.187 218.783,451.7 
	226.819,453.346 235.429,453.346 244.617,452.249 252.653,457.734 245.764,457.187 238.3,457.734 225.103,461.572 "/>
<polygon fill="#FF1A1A" stroke="#ED0F0F" stroke-miterlimit="10" points="438.621,434.701 414,431 397,430 377.205,427.023 366,429 
	347.359,429.215 335.88,431.412 327.845,434.701 330,445 342,449 351,449 360,451 374,450 381.221,449.508 391,450 403,449 
	414.513,444.021 425.424,445.667 "/>
<polygon fill="#F4F431" stroke="#F9F20D" stroke-miterlimit="10" points="329,449 330.713,456.638 333,460 339,462 343.339,462.666 
	354,463 363,463 369.743,462.666 378.927,457.734 380,453 366,452 354.246,452.249 342,449 330,445 "/>
<polygon fill="#0BD327" stroke="#19D809" stroke-miterlimit="10" points="333,464 335,470 339,477 342.195,482.958 346,480 351,476 
	355,471 359.413,468.699 363,463 354,463 343.339,462.666 333,460 "/>
<path fill="#0BD327" stroke="#919191" stroke-miterlimit="10" d="M692,540"/>
</svg>
